<mxfile host="app.diagrams.net" agent="Mozilla/5.0 (Macintosh; Intel Mac OS X 10_15_7) AppleWebKit/537.36 (KHTML, like Gecko) Chrome/138.0.0.0 Safari/537.36" version="28.0.6">
  <diagram name="Page-1" id="ydM4uLpn_bMe_xV5Nbt1">
    <mxGraphModel dx="976" dy="545" grid="1" gridSize="10" guides="1" tooltips="1" connect="1" arrows="1" fold="1" page="1" pageScale="1" pageWidth="827" pageHeight="1169" math="0" shadow="0">
      <root>
        <mxCell id="0" />
        <mxCell id="1" parent="0" />
        <mxCell id="ngB1li15whf8Q4nunsyD-12" value="" style="rounded=0;whiteSpace=wrap;html=1;strokeColor=#ffffff;fillColor=default;" parent="1" vertex="1">
          <mxGeometry x="80" y="120" width="590" height="140" as="geometry" />
        </mxCell>
        <mxCell id="ngB1li15whf8Q4nunsyD-4" value="Load&lt;br&gt;Balancer" style="rounded=0;whiteSpace=wrap;html=1;" parent="1" vertex="1">
          <mxGeometry x="420" y="130" width="80" height="120" as="geometry" />
        </mxCell>
        <mxCell id="ngB1li15whf8Q4nunsyD-5" value="CubeAPM" style="whiteSpace=wrap;html=1;aspect=fixed;" parent="1" vertex="1">
          <mxGeometry x="540" y="130" width="120" height="120" as="geometry" />
        </mxCell>
        <mxCell id="ngB1li15whf8Q4nunsyD-9" value="HTTPS&lt;br&gt;443" style="rounded=0;whiteSpace=wrap;html=1;" parent="1" vertex="1">
          <mxGeometry x="420" y="210" width="50" height="40" as="geometry" />
        </mxCell>
        <mxCell id="ngB1li15whf8Q4nunsyD-10" value="HTTP&lt;br&gt;3130" style="rounded=0;whiteSpace=wrap;html=1;" parent="1" vertex="1">
          <mxGeometry x="540" y="210" width="50" height="40" as="geometry" />
        </mxCell>
        <mxCell id="ngB1li15whf8Q4nunsyD-11" value="" style="endArrow=classic;html=1;rounded=0;exitX=1;exitY=0.5;exitDx=0;exitDy=0;entryX=0;entryY=0.5;entryDx=0;entryDy=0;" parent="1" edge="1">
          <mxGeometry width="50" height="50" relative="1" as="geometry">
            <mxPoint x="500" y="229.5" as="sourcePoint" />
            <mxPoint x="540" y="229.5" as="targetPoint" />
          </mxGeometry>
        </mxCell>
        <mxCell id="8x0kLq0rBs4-9IcZ4H1p-1" value="&lt;font&gt;Lambda&lt;/font&gt;" style="rounded=0;whiteSpace=wrap;html=1;" parent="1" vertex="1">
          <mxGeometry x="90" y="130" width="50" height="30" as="geometry" />
        </mxCell>
        <mxCell id="8x0kLq0rBs4-9IcZ4H1p-2" value="EC2" style="rounded=0;whiteSpace=wrap;html=1;" parent="1" vertex="1">
          <mxGeometry x="90" y="175" width="50" height="30" as="geometry" />
        </mxCell>
        <mxCell id="8x0kLq0rBs4-9IcZ4H1p-3" value="..." style="rounded=0;whiteSpace=wrap;html=1;" parent="1" vertex="1">
          <mxGeometry x="90" y="220" width="50" height="30" as="geometry" />
        </mxCell>
        <mxCell id="8x0kLq0rBs4-9IcZ4H1p-4" value="AWS&lt;div&gt;CloudWatch&lt;/div&gt;" style="rounded=0;whiteSpace=wrap;html=1;" parent="1" vertex="1">
          <mxGeometry x="180" y="130" width="80" height="120" as="geometry" />
        </mxCell>
        <mxCell id="8x0kLq0rBs4-9IcZ4H1p-5" value="" style="endArrow=classic;html=1;rounded=0;exitX=1;exitY=0.5;exitDx=0;exitDy=0;entryX=0;entryY=0.5;entryDx=0;entryDy=0;" parent="1" edge="1">
          <mxGeometry width="50" height="50" relative="1" as="geometry">
            <mxPoint x="140" y="189.5" as="sourcePoint" />
            <mxPoint x="180" y="189.5" as="targetPoint" />
          </mxGeometry>
        </mxCell>
        <mxCell id="8x0kLq0rBs4-9IcZ4H1p-6" value="Amazon&lt;div&gt;Data&lt;/div&gt;&lt;div&gt;Firehose&lt;/div&gt;" style="rounded=0;whiteSpace=wrap;html=1;" parent="1" vertex="1">
          <mxGeometry x="300" y="130" width="80" height="120" as="geometry" />
        </mxCell>
        <mxCell id="8x0kLq0rBs4-9IcZ4H1p-7" value="" style="endArrow=classic;html=1;rounded=0;exitX=1;exitY=0.5;exitDx=0;exitDy=0;entryX=0;entryY=0.5;entryDx=0;entryDy=0;" parent="1" edge="1">
          <mxGeometry width="50" height="50" relative="1" as="geometry">
            <mxPoint x="260" y="189.5" as="sourcePoint" />
            <mxPoint x="300" y="189.5" as="targetPoint" />
          </mxGeometry>
        </mxCell>
        <mxCell id="8x0kLq0rBs4-9IcZ4H1p-12" value="" style="endArrow=classic;html=1;rounded=0;exitX=1;exitY=0.5;exitDx=0;exitDy=0;entryX=0;entryY=0.5;entryDx=0;entryDy=0;" parent="1" edge="1">
          <mxGeometry width="50" height="50" relative="1" as="geometry">
            <mxPoint x="140" y="144.5" as="sourcePoint" />
            <mxPoint x="180" y="144.5" as="targetPoint" />
          </mxGeometry>
        </mxCell>
        <mxCell id="8x0kLq0rBs4-9IcZ4H1p-13" value="" style="endArrow=classic;html=1;rounded=0;exitX=1;exitY=0.5;exitDx=0;exitDy=0;entryX=0;entryY=0.5;entryDx=0;entryDy=0;" parent="1" edge="1">
          <mxGeometry width="50" height="50" relative="1" as="geometry">
            <mxPoint x="140" y="234.5" as="sourcePoint" />
            <mxPoint x="180" y="234.5" as="targetPoint" />
          </mxGeometry>
        </mxCell>
        <mxCell id="8x0kLq0rBs4-9IcZ4H1p-14" value="" style="endArrow=classic;html=1;rounded=0;exitX=1;exitY=0.5;exitDx=0;exitDy=0;entryX=0;entryY=0.5;entryDx=0;entryDy=0;" parent="1" edge="1">
          <mxGeometry width="50" height="50" relative="1" as="geometry">
            <mxPoint x="380" y="229.5" as="sourcePoint" />
            <mxPoint x="420" y="229.5" as="targetPoint" />
          </mxGeometry>
        </mxCell>
      </root>
    </mxGraphModel>
  </diagram>
</mxfile>
